<mxfile host="app.diagrams.net" modified="2023-06-11T09:42:40.196Z" agent="Mozilla/5.0 (Windows NT 10.0; Win64; x64) AppleWebKit/537.36 (KHTML, like Gecko) Chrome/112.0.0.0 Safari/537.36 OPR/98.0.0.0" etag="_FDj9hwcRHw3DpqvkxUt" version="21.3.8" type="device">
  <diagram name="Page-1" id="-QeQSSfzzgYeVgtRFEIy">
    <mxGraphModel dx="1009" dy="542" grid="1" gridSize="10" guides="1" tooltips="1" connect="1" arrows="1" fold="1" page="1" pageScale="1" pageWidth="1169" pageHeight="827" math="0" shadow="0">
      <root>
        <mxCell id="0" />
        <mxCell id="1" parent="0" />
        <mxCell id="UpCVTgxfUYEKr5VrLKY9-9" value="" style="rounded=0;whiteSpace=wrap;html=1;" parent="1" vertex="1">
          <mxGeometry x="180" y="200" width="240" height="40" as="geometry" />
        </mxCell>
        <mxCell id="UpCVTgxfUYEKr5VrLKY9-36" style="edgeStyle=orthogonalEdgeStyle;rounded=0;orthogonalLoop=1;jettySize=auto;html=1;exitX=0;exitY=0.5;exitDx=0;exitDy=0;entryX=0;entryY=0.5;entryDx=0;entryDy=0;" parent="1" source="UpCVTgxfUYEKr5VrLKY9-10" target="UpCVTgxfUYEKr5VrLKY9-23" edge="1">
          <mxGeometry relative="1" as="geometry">
            <Array as="points">
              <mxPoint x="120" y="220" />
              <mxPoint x="120" y="100" />
            </Array>
          </mxGeometry>
        </mxCell>
        <mxCell id="UpCVTgxfUYEKr5VrLKY9-10" value="&lt;font style=&quot;font-size: 20px;&quot;&gt;&lt;u&gt;StaffId&lt;/u&gt;&lt;/font&gt;" style="rounded=0;whiteSpace=wrap;html=1;" parent="1" vertex="1">
          <mxGeometry x="180" y="200" width="120" height="40" as="geometry" />
        </mxCell>
        <mxCell id="UpCVTgxfUYEKr5VrLKY9-11" value="&lt;font style=&quot;font-size: 20px;&quot;&gt;Name&lt;/font&gt;" style="rounded=0;whiteSpace=wrap;html=1;" parent="1" vertex="1">
          <mxGeometry x="300" y="200" width="120" height="40" as="geometry" />
        </mxCell>
        <mxCell id="UpCVTgxfUYEKr5VrLKY9-44" style="edgeStyle=orthogonalEdgeStyle;rounded=0;orthogonalLoop=1;jettySize=auto;html=1;exitX=0.5;exitY=1;exitDx=0;exitDy=0;entryX=0;entryY=0.5;entryDx=0;entryDy=0;" parent="1" source="UpCVTgxfUYEKr5VrLKY9-13" target="UpCVTgxfUYEKr5VrLKY9-17" edge="1">
          <mxGeometry relative="1" as="geometry" />
        </mxCell>
        <mxCell id="UpCVTgxfUYEKr5VrLKY9-13" value="&lt;font style=&quot;font-size: 20px;&quot;&gt;&lt;u&gt;MemberId&lt;/u&gt;&lt;/font&gt;" style="rounded=0;whiteSpace=wrap;html=1;" parent="1" vertex="1">
          <mxGeometry x="180" y="320" width="120" height="40" as="geometry" />
        </mxCell>
        <mxCell id="UpCVTgxfUYEKr5VrLKY9-14" value="&lt;font style=&quot;font-size: 20px;&quot;&gt;Name&lt;/font&gt;" style="rounded=0;whiteSpace=wrap;html=1;" parent="1" vertex="1">
          <mxGeometry x="300" y="320" width="120" height="40" as="geometry" />
        </mxCell>
        <mxCell id="UpCVTgxfUYEKr5VrLKY9-15" value="&lt;font style=&quot;font-size: 20px;&quot;&gt;Phone&lt;/font&gt;" style="rounded=0;whiteSpace=wrap;html=1;" parent="1" vertex="1">
          <mxGeometry x="420" y="320" width="120" height="40" as="geometry" />
        </mxCell>
        <mxCell id="UpCVTgxfUYEKr5VrLKY9-16" value="&lt;font style=&quot;font-size: 20px;&quot;&gt;Email&lt;/font&gt;" style="rounded=0;whiteSpace=wrap;html=1;" parent="1" vertex="1">
          <mxGeometry x="540" y="320" width="120" height="40" as="geometry" />
        </mxCell>
        <mxCell id="UpCVTgxfUYEKr5VrLKY9-17" value="&lt;u style=&quot;border-color: var(--border-color); font-size: 20px;&quot;&gt;MemberId&lt;/u&gt;" style="rounded=0;whiteSpace=wrap;html=1;" parent="1" vertex="1">
          <mxGeometry x="360" y="430" width="120" height="40" as="geometry" />
        </mxCell>
        <mxCell id="UpCVTgxfUYEKr5VrLKY9-18" value="&lt;font style=&quot;font-size: 20px;&quot;&gt;&lt;u&gt;BookId&lt;/u&gt;&lt;/font&gt;" style="rounded=0;whiteSpace=wrap;html=1;" parent="1" vertex="1">
          <mxGeometry x="180" y="520" width="120" height="40" as="geometry" />
        </mxCell>
        <mxCell id="UpCVTgxfUYEKr5VrLKY9-19" value="&lt;font style=&quot;font-size: 20px;&quot;&gt;ISBN&lt;/font&gt;" style="rounded=0;whiteSpace=wrap;html=1;" parent="1" vertex="1">
          <mxGeometry x="300" y="520" width="120" height="40" as="geometry" />
        </mxCell>
        <mxCell id="UpCVTgxfUYEKr5VrLKY9-20" value="&lt;font style=&quot;font-size: 20px;&quot;&gt;Title&lt;/font&gt;" style="rounded=0;whiteSpace=wrap;html=1;" parent="1" vertex="1">
          <mxGeometry x="420" y="520" width="120" height="40" as="geometry" />
        </mxCell>
        <mxCell id="UpCVTgxfUYEKr5VrLKY9-21" value="&lt;font style=&quot;font-size: 20px;&quot;&gt;Author&lt;/font&gt;" style="rounded=0;whiteSpace=wrap;html=1;" parent="1" vertex="1">
          <mxGeometry x="540" y="520" width="120" height="40" as="geometry" />
        </mxCell>
        <mxCell id="UpCVTgxfUYEKr5VrLKY9-23" value="&lt;font style=&quot;font-size: 20px;&quot;&gt;&lt;u&gt;StaffId&lt;/u&gt;&lt;/font&gt;" style="rounded=0;whiteSpace=wrap;html=1;" parent="1" vertex="1">
          <mxGeometry x="180" y="80" width="120" height="40" as="geometry" />
        </mxCell>
        <mxCell id="UpCVTgxfUYEKr5VrLKY9-24" value="&lt;font style=&quot;font-size: 20px;&quot;&gt;Password&lt;/font&gt;" style="rounded=0;whiteSpace=wrap;html=1;" parent="1" vertex="1">
          <mxGeometry x="300" y="80" width="120" height="40" as="geometry" />
        </mxCell>
        <mxCell id="UpCVTgxfUYEKr5VrLKY9-26" value="&lt;font style=&quot;font-size: 18px;&quot;&gt;Authentication System&lt;/font&gt;" style="text;html=1;strokeColor=none;fillColor=none;align=center;verticalAlign=middle;whiteSpace=wrap;rounded=0;" parent="1" vertex="1">
          <mxGeometry x="180" y="40" width="190" height="40" as="geometry" />
        </mxCell>
        <mxCell id="UpCVTgxfUYEKr5VrLKY9-27" value="&lt;font style=&quot;font-size: 18px;&quot;&gt;Staffs&lt;/font&gt;" style="text;html=1;strokeColor=none;fillColor=none;align=center;verticalAlign=middle;whiteSpace=wrap;rounded=0;" parent="1" vertex="1">
          <mxGeometry x="180" y="160" width="60" height="40" as="geometry" />
        </mxCell>
        <mxCell id="UpCVTgxfUYEKr5VrLKY9-28" value="&lt;font style=&quot;font-size: 18px;&quot;&gt;Members&lt;/font&gt;" style="text;html=1;strokeColor=none;fillColor=none;align=center;verticalAlign=middle;whiteSpace=wrap;rounded=0;" parent="1" vertex="1">
          <mxGeometry x="180" y="280" width="90" height="40" as="geometry" />
        </mxCell>
        <mxCell id="UpCVTgxfUYEKr5VrLKY9-29" value="&lt;font style=&quot;font-size: 18px;&quot;&gt;Books&lt;/font&gt;" style="text;html=1;strokeColor=none;fillColor=none;align=center;verticalAlign=middle;whiteSpace=wrap;rounded=0;" parent="1" vertex="1">
          <mxGeometry x="180" y="480" width="60" height="40" as="geometry" />
        </mxCell>
        <mxCell id="UpCVTgxfUYEKr5VrLKY9-46" style="edgeStyle=orthogonalEdgeStyle;rounded=0;orthogonalLoop=1;jettySize=auto;html=1;exitX=0;exitY=0.5;exitDx=0;exitDy=0;entryX=0;entryY=0.25;entryDx=0;entryDy=0;" parent="1" source="UpCVTgxfUYEKr5VrLKY9-30" target="UpCVTgxfUYEKr5VrLKY9-13" edge="1">
          <mxGeometry relative="1" as="geometry">
            <Array as="points">
              <mxPoint x="120" y="660" />
              <mxPoint x="120" y="330" />
            </Array>
          </mxGeometry>
        </mxCell>
        <mxCell id="UpCVTgxfUYEKr5VrLKY9-30" value="&lt;u style=&quot;border-color: var(--border-color); font-size: 20px;&quot;&gt;MemberId&lt;/u&gt;" style="rounded=0;whiteSpace=wrap;html=1;" parent="1" vertex="1">
          <mxGeometry x="180" y="640" width="120" height="40" as="geometry" />
        </mxCell>
        <mxCell id="UpCVTgxfUYEKr5VrLKY9-47" style="edgeStyle=orthogonalEdgeStyle;rounded=0;orthogonalLoop=1;jettySize=auto;html=1;exitX=0.5;exitY=1;exitDx=0;exitDy=0;entryX=0;entryY=0.5;entryDx=0;entryDy=0;" parent="1" source="UpCVTgxfUYEKr5VrLKY9-31" target="UpCVTgxfUYEKr5VrLKY9-18" edge="1">
          <mxGeometry relative="1" as="geometry">
            <Array as="points">
              <mxPoint x="360" y="700" />
              <mxPoint x="150" y="700" />
              <mxPoint x="150" y="540" />
            </Array>
          </mxGeometry>
        </mxCell>
        <mxCell id="UpCVTgxfUYEKr5VrLKY9-31" value="&lt;font style=&quot;font-size: 20px;&quot;&gt;&lt;u&gt;BookId&lt;/u&gt;&lt;/font&gt;" style="rounded=0;whiteSpace=wrap;html=1;" parent="1" vertex="1">
          <mxGeometry x="300" y="640" width="120" height="40" as="geometry" />
        </mxCell>
        <mxCell id="UpCVTgxfUYEKr5VrLKY9-32" value="&lt;font style=&quot;font-size: 20px;&quot;&gt;Issue Date&lt;/font&gt;" style="rounded=0;whiteSpace=wrap;html=1;" parent="1" vertex="1">
          <mxGeometry x="420" y="640" width="120" height="40" as="geometry" />
        </mxCell>
        <mxCell id="UpCVTgxfUYEKr5VrLKY9-33" value="&lt;font style=&quot;font-size: 20px;&quot;&gt;Return date&lt;/font&gt;" style="rounded=0;whiteSpace=wrap;html=1;" parent="1" vertex="1">
          <mxGeometry x="540" y="640" width="120" height="40" as="geometry" />
        </mxCell>
        <mxCell id="UpCVTgxfUYEKr5VrLKY9-34" value="&lt;font style=&quot;font-size: 18px;&quot;&gt;Reserve&lt;/font&gt;" style="text;html=1;strokeColor=none;fillColor=none;align=center;verticalAlign=middle;whiteSpace=wrap;rounded=0;" parent="1" vertex="1">
          <mxGeometry x="180" y="600" width="80" height="40" as="geometry" />
        </mxCell>
        <mxCell id="UpCVTgxfUYEKr5VrLKY9-39" value="&lt;font style=&quot;font-size: 20px;&quot;&gt;House No&lt;/font&gt;" style="rounded=0;whiteSpace=wrap;html=1;" parent="1" vertex="1">
          <mxGeometry x="480" y="430" width="120" height="40" as="geometry" />
        </mxCell>
        <mxCell id="UpCVTgxfUYEKr5VrLKY9-40" value="&lt;font style=&quot;font-size: 20px;&quot;&gt;Street&lt;/font&gt;" style="rounded=0;whiteSpace=wrap;html=1;" parent="1" vertex="1">
          <mxGeometry x="600" y="430" width="120" height="40" as="geometry" />
        </mxCell>
        <mxCell id="UpCVTgxfUYEKr5VrLKY9-41" value="&lt;font style=&quot;font-size: 20px;&quot;&gt;Zip code&lt;/font&gt;" style="rounded=0;whiteSpace=wrap;html=1;" parent="1" vertex="1">
          <mxGeometry x="720" y="430" width="120" height="40" as="geometry" />
        </mxCell>
        <mxCell id="UpCVTgxfUYEKr5VrLKY9-43" value="&lt;font style=&quot;font-size: 18px;&quot;&gt;Address&lt;/font&gt;" style="text;html=1;strokeColor=none;fillColor=none;align=center;verticalAlign=middle;whiteSpace=wrap;rounded=0;" parent="1" vertex="1">
          <mxGeometry x="360" y="390" width="80" height="40" as="geometry" />
        </mxCell>
      </root>
    </mxGraphModel>
  </diagram>
</mxfile>
